<?xml version="1.0" encoding="utf-8"?>
<!-- Generator: Adobe Illustrator 24.1.0, SVG Export Plug-In . SVG Version: 6.00 Build 0)  -->
<svg version="1.1" id="Camada_1" xmlns="http://www.w3.org/2000/svg" xmlns:xlink="http://www.w3.org/1999/xlink" x="0px" y="0px"
	 viewBox="0 0 150 72" style="enable-background:new 0 0 150 72;" xml:space="preserve">
<style type="text/css">
	.st0{fill:#EC008C;}
</style>
<g>
	<g>
		<g>
			<path d="M22.3,29.8c-0.1-0.9-0.2-1.9-0.2-2.9V15.1c0-1.5-0.3-2.8-1-3.7c-0.7-0.9-1.5-1.6-2.6-2.1c-1-0.5-2.1-0.8-3.3-1
				C14.1,8.1,12.9,8,11.8,8C10.5,8,9.2,8.2,8,8.4C6.7,8.7,5.5,9.1,4.5,9.7c-1.1,0.6-1.9,1.5-2.6,2.5c-0.7,1.1-1.1,2.4-1.2,4
				c0,0.2,0.1,0.3,0.2,0.5c0.1,0.1,0.3,0.2,0.5,0.2h6.1c0.3,0,0.6-0.3,0.6-0.6c0.1-1,0.4-1.8,1-2.2c0.6-0.4,1.4-0.7,2.5-0.7
				c0.5,0,1,0,1.4,0.1c0.4,0.1,0.7,0.2,1,0.4c0.3,0.2,0.5,0.4,0.6,0.7c0.2,0.3,0.2,0.7,0.2,1.3c0,0,0,0,0,0c0,0.6-0.2,0.8-0.3,0.9
				c-0.3,0.3-0.8,0.5-1.4,0.6c-0.7,0.2-1.4,0.3-2.3,0.4C9.9,18,9,18.1,8.1,18.3c-0.9,0.1-1.9,0.4-2.8,0.6c-1,0.3-1.8,0.7-2.6,1.2
				c-0.8,0.6-1.4,1.3-1.9,2.2C0.3,23.2,0,24.4,0,25.8c0,1.3,0.2,2.4,0.6,3.3c0.4,0.9,1,1.7,1.8,2.3c0.8,0.6,1.6,1.1,2.6,1.3
				c1,0.3,2,0.4,3.1,0.4c1.4,0,2.9-0.2,4.2-0.6c1-0.3,2-0.8,2.8-1.5c0.1,0.4,0.2,0.8,0.3,1.1c0.1,0.3,0.3,0.4,0.6,0.4h6.2
				c0.2,0,0.4-0.1,0.5-0.3s0.1-0.5,0-0.6C22.6,31.3,22.4,30.6,22.3,29.8z M14.8,22v1.2c0,0.3,0,0.8-0.1,1.3c-0.1,0.5-0.2,1-0.5,1.5
				c-0.3,0.5-0.7,0.9-1.2,1.2c-0.6,0.3-1.4,0.5-2.5,0.5c-0.4,0-0.9,0-1.3-0.1c-0.4-0.1-0.7-0.2-1-0.4c-0.3-0.2-0.4-0.4-0.6-0.7
				c-0.1-0.3-0.2-0.7-0.2-1.1c0-0.5,0.1-0.9,0.2-1.1c0.2-0.3,0.4-0.5,0.6-0.7c0.3-0.2,0.6-0.4,1-0.5c0.4-0.1,0.8-0.2,1.3-0.3
				c0.5-0.1,0.9-0.2,1.4-0.2c0.5-0.1,1-0.1,1.4-0.2c0.5-0.1,0.9-0.2,1.3-0.4C14.7,22,14.8,22,14.8,22z"/>
		</g>
		<g>
			<path d="M41,8.3C40.4,8.1,39.9,8,39.5,8c-0.8,0-1.7,0.1-2.4,0.4c-0.8,0.3-1.5,0.6-2.2,1.1c-0.7,0.5-1.3,1-1.8,1.7
				c0,0.1-0.1,0.1-0.1,0.2v-2c0-0.4-0.3-0.6-0.6-0.6h-5.8c-0.3,0-0.6,0.3-0.6,0.6V32c0,0.4,0.3,0.6,0.6,0.6h6.1
				c0.3,0,0.6-0.3,0.6-0.6V21.8c0-1,0.1-1.9,0.3-2.7c0.2-0.8,0.5-1.5,0.9-2.1c0.4-0.6,1-1,1.6-1.4c0.7-0.3,1.6-0.5,2.6-0.5
				c0.3,0,0.7,0,1.1,0.1c0.4,0,0.7,0.1,1,0.1c0.2,0,0.4,0,0.5-0.1c0.1-0.1,0.2-0.3,0.2-0.5V8.9C41.4,8.6,41.2,8.4,41,8.3z"/>
		</g>
		<g>
			<path d="M57.8,17.7l8-8C66,9.6,66,9.3,65.9,9c-0.1-0.2-0.3-0.4-0.6-0.4h-7.2c-0.2,0-0.3,0.1-0.5,0.2l-6.6,7V0.6
				C51,0.3,50.7,0,50.4,0h-6.1c-0.3,0-0.6,0.3-0.6,0.6V32c0,0.4,0.3,0.6,0.6,0.6h6.1c0.3,0,0.6-0.3,0.6-0.6v-7.5l1.6-1.6l5.7,9.5
				c0.1,0.2,0.3,0.3,0.5,0.3h7.4c0.2,0,0.4-0.1,0.6-0.3c0.1-0.2,0.1-0.5,0-0.7L57.8,17.7z"/>
		</g>
		<g>
			<path d="M89.1,8.6H83c-0.3,0-0.6,0.3-0.6,0.6v11.9c0,2.2-0.3,3.7-1,4.6c-0.6,0.8-1.6,1.3-3.1,1.3c-1.2,0-2.1-0.4-2.5-1.1
				c-0.5-0.8-0.8-2.1-0.8-3.8V9.3c0-0.4-0.3-0.6-0.6-0.6h-6.1c-0.3,0-0.6,0.3-0.6,0.6v14c0,1.4,0.1,2.8,0.4,4
				c0.3,1.2,0.7,2.3,1.4,3.2c0.7,0.9,1.6,1.6,2.7,2.1c1.1,0.5,2.6,0.7,4.3,0.7c1.4,0,2.7-0.3,4.1-0.9c0.8-0.4,1.6-1,2.2-1.7V32
				c0,0.4,0.3,0.6,0.6,0.6h5.8c0.3,0,0.6-0.3,0.6-0.6V9.3C89.8,8.9,89.5,8.6,89.1,8.6z"/>
		</g>
		<g>
			<path d="M110.8,19.7c-0.7-0.5-1.5-0.9-2.4-1.2c-0.9-0.3-1.8-0.6-2.7-0.8c-0.9-0.2-1.7-0.4-2.6-0.6c-0.8-0.2-1.5-0.4-2.1-0.6
				c-0.6-0.2-1-0.4-1.4-0.7c-0.3-0.2-0.4-0.5-0.4-0.9c0-0.3,0.1-0.5,0.2-0.7c0.2-0.2,0.4-0.4,0.6-0.5c0.3-0.1,0.6-0.2,0.9-0.2
				c0.4,0,0.7-0.1,1.1-0.1c1,0,1.8,0.2,2.6,0.6c0.6,0.3,0.9,0.9,1,1.9c0,0.3,0.3,0.6,0.6,0.6h5.8c0.2,0,0.3-0.1,0.5-0.2
				c0.1-0.1,0.2-0.3,0.2-0.5c-0.1-1.5-0.5-2.8-1.2-3.8c-0.6-1-1.4-1.8-2.4-2.4c-0.9-0.6-2-1-3.2-1.3c-2.3-0.5-4.9-0.5-7.3,0
				c-1.2,0.2-2.3,0.6-3.3,1.2c-1,0.6-1.8,1.4-2.4,2.4c-0.6,1-0.9,2.4-0.9,3.9c0,1.1,0.2,2.1,0.7,2.9c0.4,0.8,1,1.4,1.8,1.9
				c0.7,0.5,1.5,0.9,2.4,1.2c0.9,0.3,1.8,0.5,2.7,0.7c2.1,0.5,3.8,0.9,5,1.4c1.3,0.5,1.4,1.1,1.4,1.5c0,0.4-0.1,0.8-0.3,1
				c-0.2,0.3-0.5,0.5-0.8,0.7c-0.3,0.2-0.7,0.3-1.1,0.4c-0.4,0.1-0.8,0.1-1.2,0.1c-0.5,0-1.1-0.1-1.6-0.2c-0.5-0.1-0.9-0.3-1.3-0.6
				c-0.4-0.3-0.6-0.6-0.9-1c0,0,0,0,0,0c-0.2-0.4-0.3-0.9-0.3-1.4c0-0.4-0.3-0.6-0.6-0.6H92c-0.2,0-0.3,0.1-0.5,0.2
				c-0.1,0.1-0.2,0.3-0.2,0.5c0.1,1.6,0.4,3,1.1,4.1c0.7,1.1,1.5,2,2.6,2.6c1,0.7,2.2,1.1,3.5,1.4c1.3,0.3,2.6,0.4,3.9,0.4
				c1.3,0,2.6-0.1,3.8-0.4c1.3-0.3,2.5-0.7,3.5-1.4c1-0.7,1.9-1.6,2.5-2.6c0.6-1.1,1-2.5,1-4.1c0-1.2-0.2-2.2-0.7-3
				C112.1,20.9,111.5,20.3,110.8,19.7z"/>
		</g>
		<g>
			<path class="st0" d="M119.9,24.6h-0.1c-2.2,0-3.9,1.8-3.9,4c0,2.2,1.8,4,3.9,4h0.1c2.2,0,3.9-1.8,3.9-4
				C123.8,26.4,122,24.6,119.9,24.6z"/>
		</g>
	</g>
	<g>
		<path class="st0" d="M45.5,58.4c0.3,1.7,1,2.8,1.8,3.5c0.9,0.7,2.2,1,3.8,1c0.8,0,1.5-0.1,2.1-0.3c0.6-0.2,1.1-0.5,1.4-0.8
			c0.4-0.3,0.7-0.7,0.9-1.1c0.2-0.4,0.3-0.9,0.3-1.3c0-0.9-0.3-1.6-0.9-2.1c-0.6-0.5-1.3-0.8-2.2-1.1c-0.9-0.3-1.9-0.5-2.9-0.7
			c-1-0.2-2-0.5-2.9-0.8c-0.9-0.4-1.6-0.9-2.2-1.6c-0.6-0.7-0.9-1.7-0.9-2.9c0-1.6,0.6-2.9,1.7-4c1.2-1,2.8-1.5,4.9-1.5
			c2,0,3.7,0.5,5,1.4c1.3,0.9,2,2.5,2.3,4.7h-2.2c-0.2-1.5-0.7-2.5-1.7-3.1c-0.9-0.6-2.1-0.9-3.4-0.9c-1.4,0-2.4,0.3-3.2,0.9
			c-0.7,0.6-1.1,1.4-1.1,2.4c0,0.9,0.3,1.5,0.9,2c0.6,0.5,1.3,0.8,2.2,1.1c0.9,0.3,1.9,0.5,2.9,0.8c1,0.2,2,0.5,2.9,0.9
			c0.9,0.4,1.6,1,2.2,1.7c0.6,0.7,0.9,1.7,0.9,2.9c0,0.9-0.2,1.7-0.6,2.4c-0.4,0.7-0.9,1.3-1.6,1.8c-0.7,0.5-1.5,0.8-2.4,1.1
			c-0.9,0.2-2,0.4-3.1,0.4c-1.1,0-2.1-0.2-3-0.5c-0.9-0.3-1.6-0.8-2.2-1.4c-0.6-0.6-1.1-1.3-1.4-2.1c-0.3-0.8-0.5-1.6-0.6-2.6H45.5z
			"/>
		<path class="st0" d="M70.6,53.2c0.4,0,0.9-0.1,1.5-0.2c0.6-0.1,1-0.2,1.4-0.4c0.4-0.2,0.6-0.5,0.7-0.9c0.1-0.4,0.1-0.8,0.1-1.1
			c0-1.1-0.4-2.1-1.1-2.8c-0.7-0.7-1.9-1.1-3.6-1.1c-0.8,0-1.4,0.1-2.1,0.2c-0.6,0.1-1.2,0.4-1.7,0.7c-0.5,0.3-0.9,0.8-1.2,1.3
			c-0.3,0.6-0.5,1.3-0.6,2.1h-2.2c0.1-1.1,0.3-2.1,0.8-2.9c0.4-0.8,1-1.5,1.7-2c0.7-0.5,1.5-0.9,2.4-1.1c0.9-0.2,1.9-0.4,2.9-0.4
			c0.9,0,1.8,0.1,2.7,0.3c0.8,0.2,1.6,0.5,2.2,1c0.6,0.5,1.1,1.1,1.5,1.8c0.4,0.8,0.5,1.7,0.5,2.8v10.5c0,0.9,0.2,1.4,0.5,1.7
			c0.3,0.2,0.9,0.2,1.8-0.2v1.7c-0.2,0-0.4,0.1-0.7,0.2c-0.3,0.1-0.7,0.1-1,0.1c-0.3,0-0.7,0-1-0.1c-0.4,0-0.7-0.2-0.9-0.4
			c-0.2-0.2-0.4-0.4-0.5-0.7c-0.1-0.3-0.2-0.5-0.3-0.9c0-0.3-0.1-0.6-0.1-1c-0.9,1-2,1.8-3.2,2.4c-1.2,0.5-2.5,0.8-3.9,0.8
			c-0.8,0-1.6-0.1-2.4-0.3c-0.8-0.2-1.4-0.6-2-1c-0.6-0.5-1-1-1.4-1.7c-0.3-0.7-0.5-1.5-0.5-2.4c0-3.3,2.2-5.2,6.6-5.8L70.6,53.2z
			 M74.3,54.3c-0.9,0.4-1.9,0.7-2.8,0.8c-0.9,0.1-1.9,0.2-2.8,0.3c-1.7,0.1-3,0.5-3.9,1.2c-0.9,0.6-1.4,1.6-1.4,2.9
			c0,0.6,0.1,1.1,0.3,1.5c0.2,0.4,0.5,0.8,0.9,1.1c0.4,0.3,0.8,0.5,1.3,0.6c0.5,0.1,1,0.2,1.5,0.2c0.9,0,1.7-0.1,2.6-0.3
			c0.8-0.2,1.6-0.6,2.2-1c0.6-0.5,1.2-1,1.5-1.7c0.4-0.7,0.6-1.5,0.6-2.5V54.3z"/>
		<path class="st0" d="M83.5,64.4h-2.2V45.2h2.2v2.9h0.1c0.6-1.1,1.4-2,2.4-2.5c1-0.6,2.2-0.9,3.4-0.9c0.9,0,1.6,0.1,2.2,0.3
			c0.6,0.2,1.1,0.5,1.5,0.8c0.4,0.3,0.8,0.7,1.1,1.2c0.3,0.4,0.5,0.9,0.7,1.4c0.6-1.3,1.5-2.2,2.5-2.8c1.1-0.6,2.3-0.9,3.6-0.9
			c1.3,0,2.3,0.2,3.1,0.7c0.8,0.4,1.4,1,1.8,1.7c0.4,0.7,0.7,1.5,0.8,2.4c0.1,0.9,0.2,1.9,0.2,2.8v12.2h-2.2V51.1
			c0-1.4-0.3-2.5-0.9-3.3c-0.6-0.8-1.6-1.2-3.2-1.2c-0.8,0-1.6,0.2-2.3,0.5c-0.7,0.4-1.4,0.9-1.9,1.7c-0.2,0.3-0.4,0.7-0.6,1.1
			c-0.2,0.4-0.3,0.9-0.4,1.4c-0.1,0.5-0.2,0.9-0.2,1.4c0,0.5-0.1,0.9-0.1,1.3v10.4h-2.2V51.1c0-1.4-0.3-2.5-0.9-3.3
			c-0.6-0.8-1.6-1.2-3.2-1.2c-0.8,0-1.6,0.2-2.3,0.5c-0.7,0.4-1.4,0.9-1.9,1.7c-0.2,0.3-0.4,0.7-0.6,1.1c-0.2,0.4-0.3,0.9-0.4,1.4
			c-0.1,0.5-0.2,0.9-0.2,1.4c0,0.5-0.1,0.9-0.1,1.3V64.4z"/>
		<path class="st0" d="M113.9,72h-2.2V45.2h2.2v3.4h0.1c0.3-0.6,0.7-1.2,1.2-1.7c0.5-0.5,1-0.9,1.6-1.2c0.6-0.3,1.2-0.6,1.8-0.7
			c0.6-0.2,1.3-0.3,1.9-0.3c1.5,0,2.8,0.3,3.9,0.8c1.1,0.5,1.9,1.2,2.6,2.1c0.7,0.9,1.2,2,1.5,3.2c0.3,1.2,0.5,2.6,0.5,4
			c0,1.3-0.2,2.6-0.5,3.9c-0.3,1.2-0.9,2.3-1.5,3.3c-0.7,0.9-1.6,1.7-2.6,2.2c-1.1,0.6-2.3,0.8-3.7,0.8c-1.3,0-2.6-0.3-3.8-0.9
			c-1.2-0.6-2.2-1.5-2.9-2.7V72z M113.9,54.9c0,1.1,0.1,2.1,0.4,3.1c0.3,1,0.7,1.8,1.3,2.6c0.5,0.7,1.2,1.3,2,1.7
			c0.8,0.4,1.7,0.7,2.7,0.7c1.1,0,2.1-0.2,2.9-0.7c0.8-0.5,1.5-1.1,2.1-1.9c0.5-0.8,0.9-1.7,1.2-2.8c0.2-1.1,0.3-2.2,0.3-3.4
			c0-1.2-0.2-2.3-0.5-3.2s-0.8-1.7-1.4-2.4c-0.6-0.6-1.3-1.1-2-1.5c-0.8-0.3-1.6-0.5-2.6-0.5c-1,0-1.9,0.2-2.7,0.6
			c-0.8,0.4-1.5,1-2,1.7c-0.5,0.7-0.9,1.6-1.2,2.6C114,52.6,113.9,53.7,113.9,54.9z"/>
		<path class="st0" d="M141.8,53.2c0.4,0,0.9-0.1,1.5-0.2c0.6-0.1,1-0.2,1.4-0.4c0.4-0.2,0.6-0.5,0.7-0.9c0.1-0.4,0.1-0.8,0.1-1.1
			c0-1.1-0.4-2.1-1.1-2.8c-0.7-0.7-1.9-1.1-3.6-1.1c-0.8,0-1.4,0.1-2.1,0.2c-0.6,0.1-1.2,0.4-1.7,0.7c-0.5,0.3-0.9,0.8-1.2,1.3
			c-0.3,0.6-0.5,1.3-0.6,2.1h-2.2c0.1-1.1,0.3-2.1,0.8-2.9c0.4-0.8,1-1.5,1.7-2c0.7-0.5,1.5-0.9,2.4-1.1c0.9-0.2,1.9-0.4,2.9-0.4
			c0.9,0,1.8,0.1,2.7,0.3c0.8,0.2,1.6,0.5,2.2,1c0.6,0.5,1.1,1.1,1.5,1.8c0.4,0.8,0.5,1.7,0.5,2.8v10.5c0,0.9,0.2,1.4,0.5,1.7
			c0.3,0.2,0.9,0.2,1.8-0.2v1.7c-0.2,0-0.4,0.1-0.7,0.2c-0.3,0.1-0.7,0.1-1,0.1c-0.3,0-0.7,0-1-0.1c-0.4,0-0.7-0.2-0.9-0.4
			c-0.2-0.2-0.4-0.4-0.5-0.7c-0.1-0.3-0.2-0.5-0.3-0.9c0-0.3-0.1-0.6-0.1-1c-0.9,1-2,1.8-3.2,2.4c-1.2,0.5-2.5,0.8-3.9,0.8
			c-0.8,0-1.6-0.1-2.4-0.3c-0.8-0.2-1.4-0.6-2-1c-0.6-0.5-1-1-1.4-1.7c-0.3-0.7-0.5-1.5-0.5-2.4c0-3.3,2.2-5.2,6.6-5.8L141.8,53.2z
			 M145.5,54.3c-0.9,0.4-1.9,0.7-2.8,0.8c-0.9,0.1-1.9,0.2-2.8,0.3c-1.7,0.1-3,0.5-3.9,1.2c-0.9,0.6-1.4,1.6-1.4,2.9
			c0,0.6,0.1,1.1,0.3,1.5c0.2,0.4,0.5,0.8,0.9,1.1c0.4,0.3,0.8,0.5,1.3,0.6c0.5,0.1,1,0.2,1.5,0.2c0.9,0,1.7-0.1,2.6-0.3
			c0.8-0.2,1.6-0.6,2.2-1c0.6-0.5,1.2-1,1.5-1.7c0.4-0.7,0.6-1.5,0.6-2.5V54.3z"/>
	</g>
</g>
</svg>
