<?xml version="1.0" encoding="utf-8"?>
<!-- Generator: Adobe Illustrator 24.1.0, SVG Export Plug-In . SVG Version: 6.00 Build 0)  -->
<svg version="1.1" id="Camada_1" xmlns="http://www.w3.org/2000/svg" xmlns:xlink="http://www.w3.org/1999/xlink" x="0px" y="0px"
	 viewBox="0 0 80 38" style="enable-background:new 0 0 80 38;" xml:space="preserve">
<style type="text/css">
	.st0{fill:#EC008C;}
</style>
<g>
	<g>
		<g>
			<path d="M11.9,15.7c-0.1-0.5-0.1-1-0.1-1.5V8c0-0.8-0.2-1.5-0.5-1.9c-0.4-0.5-0.8-0.9-1.4-1.1C9.4,4.6,8.8,4.5,8.1,4.4
				C7.5,4.3,6.9,4.2,6.3,4.2c-0.7,0-1.4,0.1-2,0.2C3.6,4.6,2.9,4.8,2.4,5.1C1.8,5.5,1.4,5.9,1,6.5C0.6,7,0.4,7.7,0.4,8.6
				c0,0.1,0,0.2,0.1,0.3c0.1,0.1,0.2,0.1,0.2,0.1H4c0.2,0,0.3-0.1,0.3-0.3c0.1-0.5,0.2-0.9,0.5-1.2c0.3-0.2,0.7-0.3,1.3-0.3
				c0.3,0,0.5,0,0.8,0.1c0.2,0,0.4,0.1,0.5,0.2c0.1,0.1,0.3,0.2,0.3,0.4c0.1,0.2,0.1,0.4,0.1,0.7c0,0,0,0,0,0c0,0.3-0.1,0.4-0.2,0.5
				C7.5,9.1,7.3,9.2,7,9.3C6.6,9.3,6.2,9.4,5.8,9.5c-0.5,0-1,0.1-1.5,0.2c-0.5,0.1-1,0.2-1.5,0.3c-0.5,0.1-1,0.4-1.4,0.6
				c-0.4,0.3-0.8,0.7-1,1.2C0.1,12.3,0,12.9,0,13.6c0,0.7,0.1,1.3,0.3,1.7c0.2,0.5,0.5,0.9,1,1.2c0.4,0.3,0.9,0.6,1.4,0.7
				c0.5,0.1,1.1,0.2,1.7,0.2c0.8,0,1.5-0.1,2.3-0.3c0.5-0.2,1-0.4,1.5-0.8c0,0.2,0.1,0.4,0.2,0.6c0,0.1,0.2,0.2,0.3,0.2h3.3
				c0.1,0,0.2-0.1,0.3-0.2c0.1-0.1,0.1-0.2,0-0.3C12.1,16.5,12,16.2,11.9,15.7z M7.9,11.6v0.6c0,0.2,0,0.4-0.1,0.7
				c0,0.3-0.1,0.5-0.3,0.8c-0.1,0.2-0.4,0.5-0.7,0.7c-0.3,0.2-0.7,0.3-1.3,0.3c-0.2,0-0.5,0-0.7-0.1c-0.2,0-0.4-0.1-0.5-0.2
				c-0.1-0.1-0.2-0.2-0.3-0.3c-0.1-0.1-0.1-0.3-0.1-0.6c0-0.3,0-0.5,0.1-0.6c0.1-0.2,0.2-0.3,0.3-0.4c0.1-0.1,0.3-0.2,0.5-0.3
				c0.2-0.1,0.5-0.1,0.7-0.2c0.2,0,0.5-0.1,0.8-0.1c0.3,0,0.5-0.1,0.8-0.1C7.4,11.8,7.6,11.7,7.9,11.6C7.8,11.6,7.9,11.6,7.9,11.6z"
				/>
		</g>
		<g>
			<path d="M21.8,4.4c-0.3-0.1-0.6-0.1-0.8-0.1c-0.4,0-0.9,0.1-1.3,0.2c-0.4,0.1-0.8,0.3-1.2,0.6c-0.4,0.2-0.7,0.5-1,0.9
				c0,0,0,0.1-0.1,0.1V4.9c0-0.2-0.1-0.3-0.3-0.3h-3.1c-0.2,0-0.3,0.2-0.3,0.3v12c0,0.2,0.1,0.3,0.3,0.3h3.3c0.2,0,0.3-0.2,0.3-0.3
				v-5.4c0-0.5,0.1-1,0.2-1.4C18,9.6,18.1,9.3,18.3,9c0.2-0.3,0.5-0.5,0.9-0.7C19.6,8.1,20,8,20.6,8c0.2,0,0.4,0,0.6,0
				c0.2,0,0.4,0,0.5,0.1c0.1,0,0.2,0,0.3-0.1c0.1-0.1,0.1-0.2,0.1-0.3V4.7C22.1,4.5,22,4.4,21.8,4.4z"/>
		</g>
		<g>
			<path d="M30.8,9.3l4.3-4.2c0.1-0.1,0.1-0.2,0.1-0.4c-0.1-0.1-0.2-0.2-0.3-0.2H31c-0.1,0-0.2,0-0.2,0.1l-3.5,3.7v-8
				c0-0.2-0.1-0.3-0.3-0.3h-3.3c-0.2,0-0.3,0.2-0.3,0.3v16.5c0,0.2,0.1,0.3,0.3,0.3h3.3c0.2,0,0.3-0.2,0.3-0.3v-4l0.9-0.8l3,5
				c0.1,0.1,0.2,0.2,0.3,0.2h3.9c0.1,0,0.2-0.1,0.3-0.2c0.1-0.1,0.1-0.2,0-0.3L30.8,9.3z"/>
		</g>
		<g>
			<path d="M47.5,4.6h-3.3c-0.2,0-0.3,0.2-0.3,0.3v6.3c0,1.1-0.2,2-0.5,2.4c-0.3,0.4-0.9,0.7-1.7,0.7c-0.7,0-1.1-0.2-1.3-0.6
				c-0.3-0.4-0.4-1.1-0.4-2V4.9c0-0.2-0.1-0.3-0.3-0.3h-3.3c-0.2,0-0.3,0.2-0.3,0.3v7.4c0,0.8,0.1,1.5,0.2,2.1
				c0.1,0.7,0.4,1.2,0.7,1.7c0.4,0.5,0.8,0.8,1.5,1.1c0.6,0.2,1.4,0.4,2.3,0.4c0.7,0,1.5-0.2,2.2-0.5c0.5-0.2,0.9-0.5,1.2-0.9v0.7
				c0,0.2,0.1,0.3,0.3,0.3h3.1c0.2,0,0.3-0.2,0.3-0.3v-12C47.9,4.7,47.7,4.6,47.5,4.6z"/>
		</g>
		<g>
			<path d="M59.1,10.4c-0.4-0.3-0.8-0.5-1.3-0.7c-0.5-0.2-0.9-0.3-1.4-0.4C55.9,9.2,55.4,9.1,55,9c-0.4-0.1-0.8-0.2-1.1-0.3
				c-0.3-0.1-0.5-0.2-0.7-0.4c-0.1-0.1-0.2-0.3-0.2-0.5c0-0.2,0-0.3,0.1-0.4c0.1-0.1,0.2-0.2,0.3-0.2c0.1-0.1,0.3-0.1,0.5-0.1
				c0.2,0,0.4,0,0.6,0c0.5,0,1,0.1,1.4,0.3c0.3,0.2,0.5,0.5,0.5,1c0,0.2,0.2,0.3,0.3,0.3h3.1c0.1,0,0.2,0,0.2-0.1
				c0.1-0.1,0.1-0.2,0.1-0.3c-0.1-0.8-0.3-1.5-0.6-2c-0.3-0.5-0.8-1-1.3-1.3c-0.5-0.3-1.1-0.5-1.7-0.7c-1.2-0.3-2.6-0.3-3.9,0
				c-0.6,0.1-1.2,0.3-1.8,0.6c-0.5,0.3-1,0.7-1.3,1.3C49.2,6.9,49,7.6,49,8.4c0,0.6,0.1,1.1,0.4,1.5c0.2,0.4,0.6,0.7,0.9,1
				c0.4,0.3,0.8,0.5,1.3,0.6c0.5,0.1,0.9,0.3,1.4,0.4c1.1,0.2,2,0.5,2.7,0.7c0.7,0.3,0.8,0.6,0.8,0.8c0,0.2,0,0.4-0.1,0.5
				c-0.1,0.2-0.2,0.3-0.4,0.4c-0.2,0.1-0.4,0.2-0.6,0.2c-0.2,0-0.4,0.1-0.7,0.1c-0.3,0-0.6,0-0.8-0.1c-0.3-0.1-0.5-0.2-0.7-0.3
				c-0.2-0.1-0.3-0.3-0.5-0.5c0,0,0,0,0,0c-0.1-0.2-0.2-0.5-0.2-0.7c0-0.2-0.1-0.3-0.3-0.3h-3.1c-0.1,0-0.2,0-0.2,0.1
				c-0.1,0.1-0.1,0.2-0.1,0.2c0,0.9,0.2,1.6,0.6,2.2c0.4,0.6,0.8,1,1.4,1.4c0.5,0.3,1.2,0.6,1.9,0.7c0.7,0.1,1.4,0.2,2.1,0.2
				c0.7,0,1.4-0.1,2.1-0.2c0.7-0.1,1.3-0.4,1.8-0.7c0.5-0.4,1-0.8,1.3-1.4c0.3-0.6,0.5-1.3,0.5-2.2c0-0.6-0.1-1.1-0.4-1.6
				C59.8,11,59.5,10.7,59.1,10.4z"/>
		</g>
		<g>
			<path class="st0" d="M63.9,13L63.9,13c-1.2,0-2.2,1-2.2,2.1c0,1.2,0.9,2.1,2.1,2.1h0.1c1.2,0,2.1-1,2.1-2.1
				C66,13.9,65.1,13,63.9,13z"/>
		</g>
	</g>
	<g>
		<path class="st0" d="M24.3,30.8c0.2,0.9,0.5,1.5,1,1.9c0.5,0.4,1.1,0.5,2,0.5c0.4,0,0.8-0.1,1.1-0.2c0.3-0.1,0.6-0.2,0.8-0.4
			c0.2-0.2,0.4-0.4,0.5-0.6c0.1-0.2,0.2-0.5,0.2-0.7c0-0.5-0.2-0.9-0.5-1.1c-0.3-0.2-0.7-0.4-1.2-0.6c-0.5-0.1-1-0.3-1.6-0.4
			c-0.6-0.1-1.1-0.2-1.6-0.4c-0.5-0.2-0.9-0.5-1.2-0.8c-0.3-0.4-0.5-0.9-0.5-1.5c0-0.8,0.3-1.5,0.9-2.1c0.6-0.5,1.5-0.8,2.6-0.8
			c1.1,0,2,0.2,2.7,0.7c0.7,0.5,1.1,1.3,1.2,2.5h-1.2c-0.1-0.8-0.4-1.3-0.9-1.7c-0.5-0.3-1.1-0.5-1.8-0.5c-0.7,0-1.3,0.2-1.7,0.5
			c-0.4,0.3-0.6,0.7-0.6,1.3c0,0.5,0.2,0.8,0.5,1c0.3,0.2,0.7,0.4,1.2,0.6c0.5,0.2,1,0.3,1.6,0.4c0.6,0.1,1.1,0.3,1.6,0.5
			c0.5,0.2,0.9,0.5,1.2,0.9c0.3,0.4,0.5,0.9,0.5,1.5c0,0.5-0.1,0.9-0.3,1.3c-0.2,0.4-0.5,0.7-0.9,0.9c-0.4,0.2-0.8,0.4-1.3,0.6
			c-0.5,0.1-1,0.2-1.6,0.2c-0.6,0-1.1-0.1-1.6-0.3c-0.5-0.2-0.9-0.4-1.2-0.7c-0.3-0.3-0.6-0.7-0.8-1.1c-0.2-0.4-0.3-0.9-0.3-1.4
			H24.3z"/>
		<path class="st0" d="M37.7,28.1c0.2,0,0.5-0.1,0.8-0.1c0.3-0.1,0.6-0.1,0.7-0.2c0.2-0.1,0.3-0.2,0.4-0.5c0-0.2,0.1-0.4,0.1-0.6
			c0-0.6-0.2-1.1-0.6-1.5c-0.4-0.4-1-0.6-1.9-0.6c-0.4,0-0.8,0-1.1,0.1c-0.3,0.1-0.6,0.2-0.9,0.4c-0.3,0.2-0.5,0.4-0.6,0.7
			c-0.2,0.3-0.3,0.7-0.3,1.1H33c0-0.6,0.2-1.1,0.4-1.5c0.2-0.4,0.5-0.8,0.9-1c0.4-0.3,0.8-0.5,1.3-0.6c0.5-0.1,1-0.2,1.5-0.2
			c0.5,0,1,0.1,1.4,0.2c0.4,0.1,0.8,0.3,1.2,0.5c0.3,0.2,0.6,0.6,0.8,1c0.2,0.4,0.3,0.9,0.3,1.5v5.5c0,0.5,0.1,0.7,0.2,0.9
			c0.2,0.1,0.5,0.1,1-0.1V34c-0.1,0-0.2,0.1-0.4,0.1c-0.2,0.1-0.3,0.1-0.5,0.1c-0.2,0-0.4,0-0.5-0.1c-0.2,0-0.3-0.1-0.5-0.2
			c-0.1-0.1-0.2-0.2-0.3-0.4c-0.1-0.1-0.1-0.3-0.1-0.5c0-0.2,0-0.3,0-0.5c-0.5,0.5-1.1,1-1.7,1.3c-0.6,0.3-1.3,0.4-2.1,0.4
			c-0.4,0-0.9-0.1-1.3-0.2c-0.4-0.1-0.8-0.3-1.1-0.5c-0.3-0.2-0.6-0.6-0.7-0.9c-0.2-0.4-0.3-0.8-0.3-1.3c0-1.7,1.2-2.7,3.5-3.1
			L37.7,28.1z M39.6,28.7c-0.5,0.2-1,0.3-1.5,0.4c-0.5,0.1-1,0.1-1.5,0.2c-0.9,0.1-1.6,0.3-2.1,0.6c-0.5,0.3-0.7,0.9-0.7,1.5
			c0,0.3,0.1,0.6,0.2,0.8c0.1,0.2,0.3,0.4,0.5,0.6c0.2,0.2,0.4,0.3,0.7,0.3c0.3,0.1,0.5,0.1,0.8,0.1c0.5,0,0.9-0.1,1.4-0.2
			c0.4-0.1,0.8-0.3,1.2-0.5c0.3-0.2,0.6-0.5,0.8-0.9c0.2-0.4,0.3-0.8,0.3-1.3V28.7z"/>
		<path class="st0" d="M44.6,34h-1.2V23.8h1.2v1.5h0c0.3-0.6,0.7-1,1.3-1.3c0.6-0.3,1.2-0.5,1.8-0.5c0.5,0,0.9,0.1,1.2,0.2
			c0.3,0.1,0.6,0.2,0.8,0.4c0.2,0.2,0.4,0.4,0.6,0.6c0.1,0.2,0.3,0.5,0.4,0.8c0.3-0.7,0.8-1.2,1.4-1.5c0.6-0.3,1.2-0.5,1.9-0.5
			c0.7,0,1.2,0.1,1.6,0.3c0.4,0.2,0.7,0.5,0.9,0.9c0.2,0.4,0.4,0.8,0.4,1.3c0.1,0.5,0.1,1,0.1,1.5V34h-1.2v-7c0-0.7-0.2-1.3-0.5-1.7
			c-0.3-0.4-0.9-0.6-1.7-0.6c-0.4,0-0.8,0.1-1.2,0.3c-0.4,0.2-0.7,0.5-1,0.9c-0.1,0.2-0.2,0.4-0.3,0.6c-0.1,0.2-0.2,0.5-0.2,0.7
			c-0.1,0.2-0.1,0.5-0.1,0.7c0,0.2,0,0.5,0,0.7V34h-1.2v-7c0-0.7-0.2-1.3-0.5-1.7c-0.3-0.4-0.9-0.6-1.7-0.6c-0.4,0-0.8,0.1-1.2,0.3
			c-0.4,0.2-0.7,0.5-1,0.9c-0.1,0.2-0.2,0.4-0.3,0.6c-0.1,0.2-0.2,0.5-0.2,0.7c-0.1,0.2-0.1,0.5-0.1,0.7c0,0.2,0,0.5,0,0.7V34z"/>
		<path class="st0" d="M60.7,38h-1.2V23.8h1.2v1.8h0c0.2-0.3,0.4-0.6,0.7-0.9c0.3-0.3,0.6-0.5,0.9-0.6c0.3-0.2,0.6-0.3,1-0.4
			c0.3-0.1,0.7-0.1,1-0.1c0.8,0,1.5,0.1,2.1,0.4c0.6,0.3,1,0.7,1.4,1.1c0.4,0.5,0.6,1,0.8,1.7c0.2,0.7,0.3,1.4,0.3,2.1
			c0,0.7-0.1,1.4-0.3,2c-0.2,0.7-0.5,1.2-0.8,1.7c-0.4,0.5-0.8,0.9-1.4,1.2c-0.6,0.3-1.2,0.4-2,0.4c-0.7,0-1.4-0.2-2-0.5
			c-0.7-0.3-1.2-0.8-1.5-1.4V38z M60.7,29c0,0.6,0.1,1.1,0.2,1.6c0.2,0.5,0.4,1,0.7,1.4c0.3,0.4,0.6,0.7,1.1,0.9
			c0.4,0.2,0.9,0.3,1.4,0.3c0.6,0,1.1-0.1,1.6-0.4c0.4-0.2,0.8-0.6,1.1-1c0.3-0.4,0.5-0.9,0.6-1.5c0.1-0.6,0.2-1.2,0.2-1.8
			c0-0.6-0.1-1.2-0.3-1.7c-0.2-0.5-0.4-0.9-0.7-1.2c-0.3-0.3-0.7-0.6-1.1-0.8c-0.4-0.2-0.9-0.3-1.4-0.3c-0.5,0-1,0.1-1.5,0.3
			c-0.4,0.2-0.8,0.5-1.1,0.9c-0.3,0.4-0.5,0.8-0.7,1.4C60.8,27.8,60.7,28.3,60.7,29z"/>
		<path class="st0" d="M75.6,28.1c0.2,0,0.5-0.1,0.8-0.1c0.3-0.1,0.6-0.1,0.7-0.2c0.2-0.1,0.3-0.2,0.4-0.5c0-0.2,0.1-0.4,0.1-0.6
			c0-0.6-0.2-1.1-0.6-1.5c-0.4-0.4-1-0.6-1.9-0.6c-0.4,0-0.8,0-1.1,0.1c-0.3,0.1-0.6,0.2-0.9,0.4c-0.3,0.2-0.5,0.4-0.6,0.7
			c-0.2,0.3-0.3,0.7-0.3,1.1H71c0-0.6,0.2-1.1,0.4-1.5c0.2-0.4,0.5-0.8,0.9-1c0.4-0.3,0.8-0.5,1.3-0.6c0.5-0.1,1-0.2,1.5-0.2
			c0.5,0,1,0.1,1.4,0.2c0.4,0.1,0.8,0.3,1.2,0.5c0.3,0.2,0.6,0.6,0.8,1c0.2,0.4,0.3,0.9,0.3,1.5v5.5c0,0.5,0.1,0.7,0.2,0.9
			c0.2,0.1,0.5,0.1,1-0.1V34c-0.1,0-0.2,0.1-0.4,0.1c-0.2,0.1-0.3,0.1-0.5,0.1c-0.2,0-0.4,0-0.5-0.1c-0.2,0-0.3-0.1-0.5-0.2
			c-0.1-0.1-0.2-0.2-0.3-0.4c-0.1-0.1-0.1-0.3-0.1-0.5c0-0.2,0-0.3,0-0.5c-0.5,0.5-1.1,1-1.7,1.3c-0.6,0.3-1.3,0.4-2.1,0.4
			c-0.4,0-0.9-0.1-1.3-0.2c-0.4-0.1-0.8-0.3-1.1-0.5c-0.3-0.2-0.6-0.6-0.7-0.9c-0.2-0.4-0.3-0.8-0.3-1.3c0-1.7,1.2-2.7,3.5-3.1
			L75.6,28.1z M77.6,28.7c-0.5,0.2-1,0.3-1.5,0.4c-0.5,0.1-1,0.1-1.5,0.2c-0.9,0.1-1.6,0.3-2.1,0.6c-0.5,0.3-0.7,0.9-0.7,1.5
			c0,0.3,0.1,0.6,0.2,0.8c0.1,0.2,0.3,0.4,0.5,0.6c0.2,0.2,0.4,0.3,0.7,0.3c0.3,0.1,0.5,0.1,0.8,0.1c0.5,0,0.9-0.1,1.4-0.2
			c0.4-0.1,0.8-0.3,1.2-0.5c0.3-0.2,0.6-0.5,0.8-0.9c0.2-0.4,0.3-0.8,0.3-1.3V28.7z"/>
	</g>
</g>
</svg>
